<svg width="1600" height="1200" viewBox="0 0 1600 1200" fill="none" xmlns="http://www.w3.org/2000/svg">
  <rect width="1600" height="1200" fill="#F7FBFA"/>
  <circle cx="1318" cy="208" r="272" fill="#A7F3D0" fill-opacity="0.45"/>
  <circle cx="295" cy="922" r="324" fill="#99F6E4" fill-opacity="0.42"/>
  <circle cx="820" cy="490" r="220" fill="#FEF3C7" fill-opacity="0.5"/>
  <path d="M1442 372C1274 286 1133 338 1020 520C939 651 863 702 727 749C578 801 479 915 430 1090" stroke="#14B8A6" stroke-opacity="0.18" stroke-width="64" stroke-linecap="round"/>
  <path d="M240 246C438 112 651 134 876 312C1014 421 1119 458 1271 468" stroke="#0F766E" stroke-opacity="0.12" stroke-width="48" stroke-linecap="round"/>
  <path d="M1008 152C1048 152 1080 184 1080 224V290H1146C1186 290 1218 322 1218 362V760C1218 800 1186 832 1146 832H794C754 832 722 800 722 760V362C722 322 754 290 794 290H860V224C860 184 892 152 932 152H1008Z" fill="white" fill-opacity="0.46" stroke="#0F766E" stroke-opacity="0.12" stroke-width="18"/>
  <path d="M878 224C878 194.177 902.177 170 932 170H1008C1037.82 170 1062 194.177 1062 224V290H878V224Z" fill="#CCFBF1" fill-opacity="0.82"/>
  <path d="M722 398H1218" stroke="#0F766E" stroke-opacity="0.1" stroke-width="18"/>
  <path d="M842 512H936" stroke="#14B8A6" stroke-width="26" stroke-linecap="round"/>
  <path d="M1002 512H1096" stroke="#14B8A6" stroke-width="26" stroke-linecap="round"/>
  <path d="M842 640H936" stroke="#14B8A6" stroke-width="26" stroke-linecap="round"/>
  <path d="M1002 640H1096" stroke="#F59E0B" stroke-width="26" stroke-linecap="round"/>
</svg>
